<?xml version="1.0" standalone="no"?>
<!DOCTYPE svg PUBLIC "-//W3C//DTD SVG 20010904//EN"
 "http://www.w3.org/TR/2001/REC-SVG-20010904/DTD/svg10.dtd">
<svg version="1.0" xmlns="http://www.w3.org/2000/svg"
width="736.000000pt" height="736.000000pt" viewBox="0 0 736.000000 736.000000"
preserveAspectRatio="xMidYMid meet">

<g transform="translate(0.000000,736.000000) scale(0.100000,-0.100000)"
fill="#eee" stroke="none">
<path d="M5980 7291 c180 -109 419 -284 538 -396 78 -72 182 -194 281 -328
271 -367 486 -830 530 -1148 7 -47 17 -92 23 -100 10 -14 9 -6 -7 86 -4 25 -4
27 5 10 38 -74 -47 228 -107 380 -49 126 -160 356 -228 472 -135 231 -336 495
-479 631 -161 151 -602 462 -658 462 -7 0 39 -31 102 -69z"/>
<path d="M2339 5993 c-13 -16 -12 -17 4 -4 16 13 21 21 13 21 -2 0 -10 -8 -17
-17z"/>
<path d="M2991 5945 c-22 -24 -41 -50 -41 -56 0 -6 -7 -9 -15 -6 -8 4 -17 1
-21 -5 -5 -7 -2 -8 6 -3 9 5 11 4 6 -4 -4 -6 -12 -9 -17 -6 -13 9 -114 -71
-272 -214 -75 -69 -145 -130 -156 -136 -67 -37 -492 -543 -522 -621 -5 -15
-12 -25 -15 -22 -2 3 0 17 6 32 5 15 10 40 10 55 0 15 4 31 9 37 4 5 11 21 15
36 6 27 6 27 -21 16 -16 -7 -36 -18 -46 -27 -9 -8 -19 -12 -22 -9 -7 7 142
148 156 148 6 0 8 -7 5 -16 -3 -9 -6 -19 -6 -23 0 -5 -10 -21 -22 -37 -13 -16
-31 -53 -40 -84 -13 -43 -14 -51 -2 -36 7 11 14 23 14 27 0 19 172 273 277
409 14 19 6 13 -20 -15 -26 -27 -54 -63 -63 -78 -8 -16 -21 -26 -28 -24 -7 3
-37 -20 -67 -51 -30 -31 -57 -55 -61 -54 -4 1 -71 -65 -149 -146 -205 -213
-291 -333 -288 -406 l1 -31 7 35 c8 40 60 140 73 140 4 0 8 -19 8 -41 0 -40
-29 -116 -58 -151 -8 -9 -12 -23 -9 -30 3 -7 16 12 30 42 23 50 26 52 26 25 1
-16 -4 -70 -9 -119 -8 -67 -8 -92 1 -100 9 -8 10 -8 5 1 -4 7 13 101 38 210
24 109 47 215 51 236 3 21 18 52 34 69 25 28 29 29 49 17 27 -17 35 -38 21
-55 -13 -16 -4 -34 17 -34 10 0 13 -6 10 -17 -3 -10 -8 -31 -12 -48 l-7 -30
22 25 21 25 -5 -30 -5 -30 10 30 c5 17 12 43 15 59 3 15 9 26 12 22 3 -3 14 7
24 24 29 46 161 106 145 65 -8 -23 22 -19 76 10 26 14 56 25 67 25 31 0 111
-23 111 -32 0 -4 -18 -19 -39 -33 -35 -22 -107 -112 -123 -155 -4 -8 -13 -32
-22 -52 -18 -42 -6 -53 12 -13 9 20 16 24 40 19 19 -4 32 -1 41 10 7 8 18 13
26 10 7 -3 16 -1 20 5 3 6 -1 11 -9 11 -27 0 -18 47 17 87 17 21 24 32 14 24
-31 -24 -32 -1 -1 29 28 28 31 29 52 14 19 -13 21 -22 17 -57 -3 -23 -8 -50
-11 -61 -4 -10 -2 -16 3 -13 5 3 15 32 22 64 16 69 102 293 159 413 22 47 39
86 37 88 -2 2 -23 -33 -46 -79 -23 -46 -59 -112 -81 -146 -54 -86 -81 -158
-68 -183 16 -30 12 -34 -9 -9 -23 29 -16 59 40 178 22 46 38 86 35 89 -3 2
-15 -19 -27 -47 -24 -54 -29 -57 -61 -40 -39 21 -181 69 -205 69 -12 0 -23 4
-23 8 0 12 162 190 228 249 49 45 63 53 97 53 29 0 36 3 25 10 -12 7 -10 9 7
7 12 0 19 -5 17 -9 -3 -4 13 -11 36 -14 l40 -7 -30 -56 c-42 -76 -19 -45 109
149 60 91 149 214 198 273 133 163 136 167 131 167 -3 0 -24 -20 -47 -45z
m-239 -299 l-94 -145 -67 6 c-36 3 -67 7 -69 8 -7 6 149 147 231 208 50 37 91
67 92 67 1 0 -41 -65 -93 -144z m-622 -426 c-12 -17 -31 -35 -43 -41 -14 -7
-8 4 18 30 46 49 54 52 25 11z m-10 -144 c0 -3 -4 -8 -10 -11 -5 -3 -10 -1
-10 4 0 6 5 11 10 11 6 0 10 -2 10 -4z m372 -28 c-7 -7 -12 -8 -12 -2 0 14 12
26 19 19 2 -3 -1 -11 -7 -17z m-317 -31 c-22 -12 -95 -19 -95 -8 0 7 7 9 50
13 11 1 20 5 20 9 0 4 10 5 21 2 19 -5 20 -7 4 -16z m245 13 c0 -5 -4 -10 -9
-10 -6 0 -13 5 -16 10 -3 6 1 10 9 10 9 0 16 -4 16 -10z m-674 -197 c-10 -10
-19 5 -10 18 6 11 8 11 12 0 2 -7 1 -15 -2 -18z"/>
<path d="M4816 5855 c-9 -26 -7 -32 5 -12 6 10 9 21 6 23 -2 3 -7 -2 -11 -11z"/>
<path d="M2140 5810 c-8 -5 -12 -12 -9 -15 4 -3 12 1 19 10 14 17 11 19 -10 5z"/>
<path d="M4789 5783 c-1 -10 -2 -27 -3 -38 0 -11 -7 -19 -15 -17 -9 2 -11 -3
-7 -13 3 -9 2 -13 -4 -10 -5 3 -19 -13 -30 -35 -12 -23 -37 -65 -56 -95 -18
-30 -34 -56 -34 -59 0 -2 -23 -42 -51 -88 -78 -126 -341 -455 -366 -457 -7 -1
-13 -7 -13 -14 0 -7 -75 -87 -167 -178 -166 -163 -302 -278 -455 -386 -43 -30
-78 -57 -78 -60 0 -12 148 92 282 199 55 44 169 147 254 230 l153 150 93 -55
c79 -47 168 -112 241 -175 9 -8 17 -12 17 -9 0 10 -164 143 -199 161 -77 40
-143 88 -133 98 16 16 126 -54 265 -170 48 -40 87 -66 87 -58 0 22 -157 149
-260 211 -36 21 -67 40 -68 41 -2 1 36 49 85 106 135 158 322 413 432 588 l21
35 -4 -150 c-3 -82 -7 -163 -10 -180 -3 -16 -13 -75 -21 -130 -9 -55 -27 -149
-41 -209 -13 -60 -22 -111 -20 -113 6 -6 12 16 50 192 19 88 40 198 46 245 14
109 28 414 19 418 -4 2 -5 12 -2 22 3 11 3 20 -1 20 -3 0 -6 -8 -7 -17z"/>
<path d="M2054 5727 l-59 -62 60 55 c33 30 62 56 64 58 2 1 2 4 0 7 -3 2 -32
-24 -65 -58z"/>
<path d="M4059 5773 c-13 -16 -12 -17 4 -4 9 7 17 15 17 17 0 8 -8 3 -21 -13z"/>
<path d="M3960 5675 c-41 -41 -83 -78 -94 -81 -19 -6 -156 -110 -211 -161 -40
-36 -24 -27 52 30 34 26 65 47 69 47 36 0 -552 -531 -733 -663 -48 -35 -71
-59 -40 -41 110 64 472 377 741 643 194 192 301 301 295 301 -3 0 -38 -34 -79
-75z"/>
<path d="M3815 5443 c-126 -124 -212 -211 -190 -193 58 47 436 421 425 420 -3
-1 -108 -103 -235 -227z"/>
<path d="M1949 5623 c-13 -16 -12 -17 4 -4 9 7 17 15 17 17 0 8 -8 3 -21 -13z"/>
<path d="M2773 5598 c-6 -7 -16 -24 -22 -38 -12 -24 -12 -24 4 -5 20 24 37 55
32 55 -3 0 -9 -6 -14 -12z"/>
<path d="M3001 5554 c-28 -30 -51 -60 -51 -65 0 -5 14 7 32 28 17 21 43 50 57
66 14 15 22 27 19 27 -3 0 -29 -25 -57 -56z"/>
<path d="M2340 5495 c-7 -8 -9 -15 -6 -15 4 0 14 7 22 15 9 8 11 15 6 15 -5 0
-15 -7 -22 -15z"/>
<path d="M2230 5490 c0 -5 4 -10 9 -10 6 0 13 5 16 10 3 6 -1 10 -9 10 -9 0
-16 -4 -16 -10z"/>
<path d="M2697 5470 c-22 -26 -21 -30 4 -30 15 0 19 5 15 15 -3 9 0 15 9 15 8
0 15 5 15 10 0 17 -25 11 -43 -10z"/>
<path d="M3490 5319 c-63 -44 -168 -113 -232 -152 -64 -39 -115 -73 -114 -75
12 -12 466 284 466 303 0 7 3 10 -120 -76z"/>
<path d="M1480 5300 c-1 -3 -4 -16 -6 -30 -3 -18 -2 -22 7 -13 6 6 9 19 6 29
-3 11 -6 17 -7 14z"/>
<path d="M3070 5235 c-24 -25 -42 -45 -39 -45 3 0 25 20 49 45 24 25 42 45 39
45 -3 0 -25 -20 -49 -45z"/>
<path d="M1420 5260 c-9 -6 -10 -10 -3 -10 6 0 15 5 18 10 8 12 4 12 -15 0z"/>
<path d="M1346 5225 c-11 -8 -15 -15 -9 -15 6 0 16 7 23 15 16 19 11 19 -14 0z"/>
<path d="M1416 5201 c-4 -5 3 -7 14 -4 23 6 26 13 6 13 -8 0 -17 -4 -20 -9z"/>
<path d="M1344 5175 c-24 -18 -7 -19 26 0 16 9 19 14 9 15 -8 0 -24 -7 -35
-15z"/>
<path d="M2693 5167 c-11 -12 -42 -53 -69 -92 -27 -38 -56 -77 -64 -85 -16
-17 -135 -251 -145 -288 l-6 -22 25 23 c26 24 36 44 16 32 -15 -9 -12 3 7 36
10 16 23 29 29 29 6 0 11 7 10 16 0 9 5 19 11 21 20 7 33 -41 27 -99 -4 -51
-4 -51 15 22 35 134 103 308 150 383 27 44 24 57 -6 24z m-74 -160 c-7 -15
-16 -24 -20 -21 -5 3 -1 16 7 30 21 31 29 25 13 -9z"/>
<path d="M2915 5088 l-90 -93 93 90 c85 83 97 95 89 95 -1 0 -43 -42 -92 -92z"/>
<path d="M1205 5160 c-3 -5 -1 -10 4 -10 6 0 11 5 11 10 0 6 -2 10 -4 10 -3 0
-8 -4 -11 -10z"/>
<path d="M1270 5155 c-7 -9 -8 -15 -2 -15 5 0 12 7 16 15 3 8 4 15 2 15 -2 0
-9 -7 -16 -15z"/>
<path d="M1160 5140 c-9 -6 -10 -10 -3 -10 6 0 15 5 18 10 8 12 4 12 -15 0z"/>
<path d="M1115 5120 c-3 -5 -1 -10 4 -10 6 0 11 5 11 10 0 6 -2 10 -4 10 -3 0
-8 -4 -11 -10z"/>
<path d="M1245 5120 c3 -5 8 -10 11 -10 2 0 4 5 4 10 0 6 -5 10 -11 10 -5 0
-7 -4 -4 -10z"/>
<path d="M1294 5123 c4 -7 3 -13 -2 -13 -8 0 2 -97 11 -106 2 -2 3 23 2 56 -2
34 -6 64 -10 68 -5 4 -5 1 -1 -5z"/>
<path d="M1180 5110 c-9 -6 -10 -10 -3 -10 6 0 15 5 18 10 8 12 4 12 -15 0z"/>
<path d="M1015 5090 c-16 -7 -17 -9 -3 -9 9 -1 20 4 23 9 7 11 7 11 -20 0z"/>
<path d="M1115 5070 c-3 -6 1 -7 9 -4 18 7 21 14 7 14 -6 0 -13 -4 -16 -10z"/>
<path d="M4851 5043 c-6 -21 -11 -47 -10 -58 0 -11 7 5 14 35 15 63 12 81 -4
23z"/>
<path d="M1015 5060 c-3 -6 1 -7 9 -4 18 7 21 14 7 14 -6 0 -13 -4 -16 -10z"/>
<path d="M966 5003 c-6 -14 -5 -15 5 -6 7 7 10 15 7 18 -3 3 -9 -2 -12 -12z"/>
<path d="M1271 4999 c-1 -9 3 -39 9 -67 5 -29 12 -74 15 -101 3 -28 11 -61 18
-74 12 -22 14 -18 35 57 21 76 22 85 8 141 -8 33 -15 52 -15 43 -1 -10 -7 -17
-13 -15 -15 2 -16 -29 -6 -111 10 -72 -6 -57 -21 20 -16 81 -29 127 -30 107z
m77 -47 c2 -7 -1 -12 -8 -12 -6 0 -9 4 -6 9 4 5 1 12 -4 14 -6 3 -5 4 2 3 6
-1 14 -8 16 -14z m-4 -78 c3 -8 2 -12 -4 -9 -6 3 -10 10 -10 16 0 14 7 11 14
-7z"/>
<path d="M990 4991 c0 -5 5 -13 10 -16 6 -3 10 -2 10 4 0 5 -4 13 -10 16 -5 3
-10 2 -10 -4z"/>
<path d="M2845 4929 c-49 -28 -98 -58 -107 -66 -10 -9 -23 -13 -31 -10 -8 3
-31 -15 -56 -45 -40 -46 -42 -50 -27 -67 9 -10 16 -21 16 -26 0 -5 -6 0 -14
10 -13 18 -15 17 -35 -15 -11 -19 -21 -40 -21 -46 0 -15 -28 -37 -51 -41 -21
-3 -24 9 -10 35 7 13 3 25 -14 44 -22 26 -24 26 -39 9 -9 -10 -14 -25 -10 -35
5 -14 -4 -20 -27 -18 -4 1 -6 -4 -6 -11 1 -7 -4 -31 -11 -55 -11 -35 -11 -49
-1 -71 13 -28 13 -28 29 -8 11 13 23 18 33 14 20 -7 22 -38 5 -55 -8 -8 -8
-12 -1 -12 16 0 73 67 74 88 1 9 2 29 3 44 1 14 8 33 16 43 18 21 62 15 75
-11 6 -11 16 -19 22 -17 7 3 15 -7 19 -21 3 -14 10 -24 14 -21 5 3 11 -1 13
-7 3 -8 6 -6 6 5 1 9 -4 17 -11 17 -9 0 -9 3 0 12 7 7 12 20 12 31 0 14 -5 17
-20 12 -23 -7 -28 10 -5 19 8 3 15 12 15 20 0 8 5 18 12 22 7 5 9 0 6 -14 -4
-15 -2 -19 9 -15 10 4 13 14 9 34 -7 37 1 37 15 2 23 -58 18 -5 -6 62 l-25 70
27 22 c40 32 63 35 74 10 8 -19 8 -17 4 8 -5 28 -2 32 55 63 50 28 70 42 58
42 -2 0 -43 -23 -93 -51z m-355 -241 c0 -6 -6 -5 -15 2 -8 7 -15 14 -15 16 0
2 7 1 15 -2 8 -4 15 -11 15 -16z"/>
<path d="M4820 4918 c-18 -70 -62 -201 -77 -231 -8 -16 -12 -31 -10 -34 3 -2
17 22 32 54 14 32 33 71 41 86 8 16 14 39 14 52 0 13 4 26 9 29 8 5 13 86 5
86 -2 0 -8 -19 -14 -42z"/>
<path d="M1049 4923 c6 -13 16 -23 21 -23 6 0 10 -7 10 -15 0 -8 7 -15 16 -15
8 0 12 -4 9 -10 -3 -5 -1 -10 4 -10 6 0 11 -7 11 -15 0 -24 -23 -7 -62 47 -35
47 -56 58 -23 12 8 -12 11 -24 8 -28 -9 -9 120 -139 187 -189 30 -22 57 -41
59 -43 2 -2 -9 -24 -23 -50 -28 -50 -29 -66 -4 -37 15 17 48 112 48 139 0 6
-30 36 -67 66 -38 31 -99 86 -137 124 -38 38 -63 59 -57 47z m116 -125 c5 4 5
1 1 -6 -6 -10 -11 -10 -22 -1 -8 6 -14 14 -14 16 0 3 6 0 13 -6 8 -6 18 -7 22
-3z m15 -28 c-6 -11 -13 -20 -16 -20 -2 0 0 9 6 20 6 11 13 20 16 20 2 0 0 -9
-6 -20z m60 -37 c0 -2 -10 -1 -22 3 -20 6 -21 5 -9 -10 16 -19 3 -21 -22 -2
-16 12 -16 14 -2 20 9 3 13 11 9 17 -3 6 5 3 20 -6 14 -10 26 -19 26 -22z"/>
<path d="M990 4913 c0 -13 27 -49 33 -43 3 3 -3 16 -14 29 -10 13 -19 19 -19
14z"/>
<path d="M2384 4876 c-8 -8 -8 -18 -2 -29 5 -10 6 -23 2 -30 -5 -9 -4 -9 5 -1
7 6 11 25 9 42 -2 23 -6 27 -14 18z"/>
<path d="M906 4841 c4 -14 2 -21 -4 -17 -25 15 -16 -36 15 -89 37 -62 123
-169 130 -161 3 2 -20 34 -51 70 -31 37 -56 74 -55 84 0 12 4 10 12 -8 14 -29
87 -110 87 -95 0 6 -16 28 -35 50 -36 41 -42 55 -25 55 6 0 10 -4 10 -9 0 -19
112 -131 124 -124 6 3 8 3 4 -2 -4 -4 -2 -17 4 -29 6 -13 -6 -5 -31 18 -45 44
-58 44 -36 0 15 -31 34 -50 100 -98 22 -16 42 -31 44 -32 1 -2 -5 -18 -14 -36
-19 -38 -115 -295 -115 -309 0 -5 5 -9 10 -9 6 0 10 7 10 15 0 50 150 390 164
374 2 -2 1 -26 -4 -52 -4 -26 -4 -44 0 -40 14 14 24 136 11 129 -13 -9 -87 32
-115 63 -11 12 -23 21 -29 21 -14 0 -123 114 -154 161 -14 21 -28 39 -30 39
-2 0 -1 -5 3 -12 4 -7 3 -8 -4 -4 -6 4 -9 12 -6 19 2 7 -3 21 -11 32 -16 19
-16 19 -9 -4z m14 -68 c0 -9 6 -13 14 -10 15 6 36 -11 36 -27 0 -6 -7 -2 -15
8 -8 11 -15 14 -15 8 0 -21 -16 -13 -28 13 -15 32 -15 38 -2 30 6 -3 10 -13
10 -22z m243 -237 c4 -10 0 -12 -14 -9 -10 3 -16 9 -13 14 8 13 21 11 27 -5z"/>
<path d="M1490 4831 c-6 -17 -10 -36 -7 -43 2 -7 9 5 15 26 14 48 9 58 -8 17z"/>
<path d="M4830 4826 c0 -13 -5 -26 -11 -28 -8 -3 -14 -48 -17 -127 -6 -144 11
-162 22 -24 4 48 9 114 12 146 3 31 3 57 0 57 -4 0 -6 -11 -6 -24z"/>
<path d="M4635 4750 c-9 -28 -15 -54 -12 -57 3 -3 13 19 21 48 9 29 14 54 12
56 -2 3 -12 -19 -21 -47z"/>
<path d="M1441 4699 c-12 -39 -21 -73 -18 -75 7 -7 54 88 59 116 1 13 -2 25
-7 27 -6 2 -21 -29 -34 -68z"/>
<path d="M1933 4708 c-1 -27 1 -29 7 -13 11 27 12 45 2 45 -5 0 -9 -15 -9 -32z"/>
<path d="M1501 4644 c0 -43 7 -97 15 -119 l14 -40 -6 40 c-3 22 -8 74 -11 115
-7 100 -13 102 -12 4z"/>
<path d="M2225 4680 c-3 -5 -2 -10 4 -10 5 0 13 5 16 10 3 6 2 10 -4 10 -5 0
-13 -4 -16 -10z"/>
<path d="M4595 4663 c5 -23 4 -25 -9 -14 -11 9 -16 10 -16 2 0 -6 5 -11 10
-11 6 0 10 -8 10 -17 1 -14 4 -12 15 7 19 33 18 47 -1 54 -13 5 -15 1 -9 -21z"/>
<path d="M750 4639 c12 -23 24 -39 26 -36 5 5 -35 77 -42 77 -3 0 5 -18 16
-41z"/>
<path d="M2747 4648 c-26 -9 -27 -13 -21 -51 8 -58 14 -59 14 -4 0 40 2 45 20
42 13 -2 20 2 20 11 0 8 -1 14 -2 13 -2 0 -16 -5 -31 -11z"/>
<path d="M3360 4631 c-14 -11 -72 -44 -130 -76 -58 -31 -94 -53 -80 -49 38 10
189 91 222 119 34 29 25 33 -12 6z"/>
<path d="M4277 4639 c7 -7 15 -10 18 -7 3 3 -2 9 -12 12 -14 6 -15 5 -6 -5z"/>
<path d="M1402 4568 c-6 -23 -9 -44 -7 -46 2 -2 9 15 15 38 6 23 9 44 7 46 -2
3 -9 -14 -15 -38z"/>
<path d="M3610 4534 c-52 -36 -135 -85 -185 -110 -98 -50 -122 -65 -60 -40 91
38 307 168 335 201 18 21 15 20 -90 -51z"/>
<path d="M4689 4573 c-9 -23 -5 -31 28 -67 80 -85 76 -70 58 -192 -9 -60 -18
-122 -21 -139 -4 -23 -3 -26 5 -14 6 9 18 73 27 143 l16 126 -56 62 c-65 73
-65 95 0 25 25 -26 47 -47 50 -47 15 0 -3 30 -46 76 l-51 54 -10 -27z"/>
<path d="M1436 4550 c-14 -17 -26 -36 -26 -41 0 -5 -7 -9 -15 -9 -8 0 -15 -4
-15 -9 0 -5 -3 -18 -7 -28 -6 -17 73 65 90 94 17 28 -1 23 -27 -7z"/>
<path d="M3230 4495 c-41 -41 -70 -75 -64 -75 9 0 106 95 133 133 26 34 4 16
-69 -58z"/>
<path d="M5181 4529 c-7 -22 -11 -43 -8 -45 2 -2 9 14 16 37 7 22 11 43 8 45
-2 2 -9 -14 -16 -37z"/>
<path d="M2574 4511 c3 -5 -1 -31 -9 -57 -8 -27 -15 -55 -15 -61 0 -22 20 -14
32 12 15 34 30 32 22 -2 -6 -27 -5 -27 8 -8 16 22 48 99 48 115 0 6 -21 10
-46 10 -25 0 -43 -4 -40 -9z"/>
<path d="M1631 4505 c1 -19 18 -51 18 -35 0 8 -4 22 -9 30 -5 8 -9 11 -9 5z"/>
<path d="M3480 4388 c-47 -45 -67 -68 -45 -51 39 31 144 133 135 133 -3 -1
-43 -37 -90 -82z"/>
<path d="M5156 4444 c-4 -14 -5 -28 -3 -31 3 -2 8 8 11 23 4 14 5 28 3 31 -3
2 -8 -8 -11 -23z"/>
<path d="M7347 4153 c-3 -164 -2 -320 2 -348 5 -31 9 85 10 298 0 191 -1 347
-2 347 -2 0 -7 -134 -10 -297z"/>
<path d="M550 4360 c-33 -65 -41 -93 -12 -45 24 42 53 105 47 105 -3 0 -18
-27 -35 -60z"/>
<path d="M619 4393 c-13 -16 -12 -17 4 -4 9 7 17 15 17 17 0 8 -8 3 -21 -13z"/>
<path d="M4415 4375 c22 -13 45 -29 52 -34 8 -8 14 -8 18 0 4 6 5 11 4 12 -19
11 -101 47 -107 47 -4 0 11 -11 33 -25z"/>
<path d="M5122 4333 c-50 -145 -54 -154 -68 -142 -11 9 -14 8 -14 -3 0 -8 5
-19 10 -24 7 -7 -10 -65 -51 -180 -34 -93 -69 -194 -79 -225 -9 -31 -40 -103
-69 -161 -28 -58 -51 -109 -51 -113 0 -14 -63 -66 -117 -97 -63 -35 -71 -47
-12 -18 39 20 70 20 39 0 -8 -6 -11 -10 -6 -10 5 0 3 -7 -4 -15 -7 -9 -11 -18
-8 -21 27 -27 213 322 271 511 23 74 96 287 107 310 17 38 81 238 78 247 -2 4
-13 -22 -26 -59z m-374 -932 c-7 -11 -16 -17 -21 -14 -4 3 0 11 10 19 24 18
25 17 11 -5z"/>
<path d="M1036 4324 c-10 -31 -15 -58 -13 -61 3 -2 13 21 22 52 21 74 14 82
-9 9z"/>
<path d="M1242 4355 c0 -16 2 -22 5 -12 2 9 2 23 0 30 -3 6 -5 -1 -5 -18z"/>
<path d="M4885 4370 c3 -5 8 -10 11 -10 2 0 4 5 4 10 0 6 -5 10 -11 10 -5 0
-7 -4 -4 -10z"/>
<path d="M586 4354 c-5 -14 -4 -15 9 -4 17 14 19 20 6 20 -5 0 -12 -7 -15 -16z"/>
<path d="M3862 4359 c-30 -5 -61 -13 -70 -19 -29 -16 62 -12 113 6 25 8 65 13
88 11 l42 -4 -47 -1 c-27 -1 -48 -6 -48 -12 0 -5 -8 -10 -17 -10 -10 -1 -47
-16 -83 -35 -63 -33 -64 -34 -25 -28 22 3 58 15 79 25 35 18 38 18 32 3 -5
-14 -2 -16 13 -12 11 3 25 -1 32 -9 9 -11 7 -14 -10 -14 -11 0 -21 -4 -21 -10
0 -5 10 -10 23 -10 12 0 54 -7 94 -17 l72 -16 65 49 c36 27 65 52 66 55 0 6
-69 29 -89 29 -7 0 -10 -4 -7 -9 8 -12 -74 7 -91 21 -18 15 -145 19 -211 7z"/>
<path d="M4540 4325 c-17 -25 -29 -45 -26 -45 3 0 19 20 36 45 17 25 29 45 26
45 -3 0 -19 -20 -36 -45z"/>
<path d="M1332 4268 c-21 -141 -23 -230 -8 -313 14 -70 15 -73 11 -23 -5 55
-2 64 51 169 30 61 53 113 50 116 -2 3 -26 -38 -51 -91 -26 -53 -51 -96 -56
-96 -10 0 -4 101 13 223 6 43 8 80 6 83 -3 3 -10 -28 -16 -68z"/>
<path d="M1465 4280 c-14 -27 -23 -50 -20 -50 2 0 16 23 30 50 14 28 23 50 20
50 -2 0 -16 -22 -30 -50z"/>
<path d="M3364 4288 l-19 -23 23 19 c12 11 22 21 22 23 0 8 -8 2 -26 -19z"/>
<path d="M4243 4268 c-26 -22 -57 -45 -70 -51 -28 -13 -30 -27 -3 -27 26 0 25
-8 -5 -31 -28 -23 -75 -91 -110 -160 -31 -61 -31 -68 0 -39 31 29 32 19 4 -27
-12 -19 -19 -37 -16 -40 4 -3 28 13 55 36 28 22 55 41 61 41 15 0 14 17 -1 23
-16 5 18 47 38 47 7 0 26 11 42 25 17 14 34 25 40 25 17 0 137 143 137 164 0
6 -28 21 -63 33 l-63 21 -46 -40z"/>
<path d="M1616 4254 c-8 -22 -7 -34 3 -34 12 0 21 39 11 45 -4 3 -11 -2 -14
-11z"/>
<path d="M3875 4250 c-16 -7 -17 -9 -3 -9 9 -1 20 4 23 9 7 11 7 11 -20 0z"/>
<path d="M995 4175 c-10 -42 -16 -78 -13 -80 2 -3 12 29 22 71 10 41 16 77 14
80 -3 2 -13 -30 -23 -71z"/>
<path d="M4435 4188 c-27 -28 -63 -56 -80 -63 -16 -7 -42 -27 -58 -44 -26 -30
-26 -31 -4 -28 15 1 21 -3 19 -13 -3 -10 4 -8 20 8 l24 22 23 -24 c25 -27 21
-46 -10 -46 -11 0 -33 -10 -49 -21 -20 -16 -36 -20 -57 -15 -27 6 -27 6 -9 -9
24 -18 31 -18 58 -4 15 8 19 8 14 0 -4 -6 -1 -11 7 -11 8 0 26 -9 40 -20 14
-11 32 -17 42 -14 14 6 13 8 -5 21 -11 8 -24 12 -28 9 -4 -2 -14 -1 -21 3 -9
6 -6 14 15 30 30 23 40 26 49 11 3 -5 11 -10 16 -10 11 0 -14 43 -45 78 -27
31 -8 27 31 -6 30 -26 83 -95 83 -110 0 -4 7 -16 15 -26 12 -16 17 -17 31 -5
14 11 18 11 30 -5 7 -10 15 -24 17 -30 6 -15 8 -12 59 86 40 76 44 88 31 101
-13 13 -12 15 11 21 27 7 36 26 12 26 -32 0 -131 46 -161 74 -77 72 -65 71
-120 14z"/>
<path d="M439 4211 c-8 -11 -50 -63 -93 -115 -43 -53 -77 -99 -74 -101 3 -3
27 23 53 57 27 35 63 79 81 100 31 35 59 78 51 78 -3 0 -11 -9 -18 -19z"/>
<path d="M574 4188 l-19 -23 23 19 c21 18 27 26 19 26 -2 0 -12 -10 -23 -22z"/>
<path d="M1145 4175 c-49 -113 -42 -104 -74 -92 -24 9 -36 7 -72 -12 -24 -12
-35 -19 -24 -16 10 3 38 9 61 12 35 5 44 2 59 -18 13 -18 16 -20 11 -5 -4 11
-3 22 1 25 16 12 69 141 57 141 -2 0 -11 -16 -19 -35z"/>
<path d="M1590 4200 c0 -5 -13 -37 -29 -70 -24 -49 -64 -156 -78 -205 -1 -5
-12 -36 -23 -69 -12 -32 -20 -66 -18 -74 2 -9 12 10 22 43 10 33 22 69 27 80
39 95 61 146 78 180 12 21 21 47 21 57 0 9 5 20 10 23 6 3 10 15 10 26 0 10
-4 19 -10 19 -5 0 -10 -4 -10 -10z"/>
<path d="M501 4108 c-14 -23 -14 -23 8 -4 22 20 25 26 13 26 -4 0 -13 -10 -21
-22z"/>
<path d="M5225 4070 c-14 -27 -23 -50 -20 -50 2 0 16 23 30 50 14 28 23 50 20
50 -2 0 -16 -22 -30 -50z"/>
<path d="M60 4060 c0 -5 5 -10 11 -10 5 0 7 5 4 10 -3 6 -8 10 -11 10 -2 0 -4
-4 -4 -10z"/>
<path d="M924 4035 c-10 -8 -14 -15 -8 -15 6 0 17 7 24 15 16 19 9 19 -16 0z"/>
<path d="M874 3988 l-19 -23 23 19 c21 18 27 26 19 26 -2 0 -12 -10 -23 -22z"/>
<path d="M5161 3958 l-32 -53 30 35 c25 29 46 70 37 70 -2 0 -17 -24 -35 -52z"/>
<path d="M4185 3970 c3 -5 16 -10 28 -10 18 0 19 2 7 10 -20 13 -43 13 -35 0z"/>
<path d="M4732 3917 c-18 -40 -34 -58 -69 -80 l-46 -28 21 -22 c11 -12 30 -43
42 -69 12 -27 25 -48 29 -48 4 0 15 -20 25 -45 11 -25 22 -45 26 -45 4 0 12
-10 18 -22 8 -18 11 1 11 87 0 61 5 142 10 182 11 70 7 103 -9 103 -5 0 -12 9
-15 20 -10 31 -18 24 -43 -33z"/>
<path d="M187 3889 c-27 -39 -47 -72 -45 -75 3 -2 25 24 49 58 57 79 62 88 52
88 -4 0 -30 -32 -56 -71z"/>
<path d="M1021 3869 c-23 -39 -40 -73 -38 -75 2 -2 22 28 46 67 23 39 40 73
38 76 -3 2 -23 -28 -46 -68z"/>
<path d="M298 3872 c-43 -45 -82 -104 -142 -217 -22 -41 -25 -56 -17 -75 10
-25 10 -25 11 5 0 31 28 84 90 174 34 49 68 78 56 46 -3 -8 -8 -46 -11 -83 -5
-64 -4 -61 29 63 19 71 33 131 32 132 -1 1 -23 -19 -48 -45z"/>
<path d="M4500 3905 c0 -5 5 -17 10 -25 5 -8 10 -10 10 -5 0 6 -5 17 -10 25
-5 8 -10 11 -10 5z"/>
<path d="M4014 3892 c-17 -10 -28 -52 -14 -52 6 0 9 4 6 8 -2 4 0 14 5 22 7
13 10 13 18 1 5 -8 11 -9 15 -3 8 13 -17 33 -30 24z"/>
<path d="M4378 3888 c20 -20 14 -28 -14 -18 -36 14 -39 13 -21 -8 16 -17 10
-45 -9 -41 -26 5 -36 -1 -25 -15 8 -10 7 -22 -5 -51 -14 -34 -14 -39 0 -54 9
-10 13 -21 9 -26 -5 -4 2 -4 15 -1 27 9 41 -17 24 -44 -30 -48 64 -23 111 29
46 52 62 160 21 144 -12 -4 -14 0 -10 18 4 19 -3 31 -31 54 -26 21 -35 25 -30
13 3 -10 2 -18 -2 -18 -5 0 -11 7 -15 15 -3 8 -11 15 -18 15 -9 0 -9 -3 0 -12z"/>
<path d="M5106 3868 l-18 -33 21 25 c18 22 26 40 18 40 -1 0 -11 -15 -21 -32z"/>
<path d="M91 3874 c0 -11 3 -14 6 -6 3 7 2 16 -1 19 -3 4 -6 -2 -5 -13z"/>
<path d="M4555 3880 c-3 -5 3 -20 15 -32 l20 -22 -11 32 c-12 35 -15 37 -24
22z"/>
<path d="M1237 3812 c-16 -37 -35 -82 -43 -100 -36 -83 -76 -194 -71 -198 2
-2 30 62 62 143 32 82 66 165 77 186 10 20 15 37 11 37 -5 0 -21 -31 -36 -68z"/>
<path d="M4640 3858 c-12 -22 -12 -22 6 -6 10 10 15 20 12 24 -4 3 -12 -5 -18
-18z"/>
<path d="M1350 3840 c13 -45 64 -135 75 -133 6 1 11 15 12 30 2 28 1 28 -6 -2
-7 -30 -7 -30 -39 32 -18 34 -32 69 -32 77 0 8 -4 17 -9 21 -6 3 -6 -6 -1 -25z"/>
<path d="M117 3793 c-9 -9 -9 -41 1 -46 4 -3 8 8 9 24 2 30 1 33 -10 22z"/>
<path d="M4629 3748 c17 -23 31 -52 31 -64 0 -13 5 -26 10 -29 6 -3 10 4 10
17 0 28 -54 118 -71 118 -6 0 3 -19 20 -42z"/>
<path d="M665 3705 c-16 -36 -25 -68 -22 -72 4 -3 10 3 13 13 4 10 16 41 26
68 28 73 15 66 -17 -9z"/>
<path d="M120 3696 c0 -8 4 -17 9 -20 5 -4 7 3 4 14 -6 23 -13 26 -13 6z"/>
<path d="M372 3615 c-1 -102 10 -165 41 -222 28 -52 27 -39 -1 30 -20 49 -27
87 -32 177 l-7 115 -1 -100z"/>
<path d="M276 3560 c2 -52 4 -185 5 -295 l2 -200 7 165 c9 203 8 193 21 184 6
-3 3 9 -7 27 -11 21 -21 68 -25 124 l-7 90 4 -95z"/>
<path d="M1416 3623 c-9 -39 10 -281 29 -383 19 -102 46 -190 57 -190 11 0 10
14 -6 57 -29 76 -66 316 -67 431 -1 61 -3 112 -4 112 -2 0 -6 -12 -9 -27z"/>
<path d="M3898 3638 c-7 -17 58 -82 67 -68 8 14 -3 30 -21 30 -8 0 -14 4 -14
8 0 5 -6 16 -13 26 -11 15 -15 16 -19 4z"/>
<path d="M4550 3629 c0 -15 -7 -32 -15 -39 -21 -17 -86 -110 -77 -110 4 1 32
21 62 45 43 35 56 41 58 29 2 -9 -1 -21 -8 -28 -8 -8 -9 -6 -4 8 5 13 4 17 -4
12 -7 -4 -12 -15 -12 -25 0 -10 -11 -30 -25 -45 -23 -25 -12 -39 13 -14 18 18
15 -4 -4 -31 -16 -22 -16 -23 2 -13 27 15 140 134 147 155 5 13 1 17 -19 17
-35 0 -90 25 -103 47 -9 16 -10 15 -11 -8z"/>
<path d="M4919 3593 l-24 -28 28 24 c25 23 32 31 24 31 -2 0 -14 -12 -28 -27z"/>
<path d="M7232 3575 c0 -16 2 -22 5 -12 2 9 2 23 0 30 -3 6 -5 -1 -5 -18z"/>
<path d="M7240 3469 c-1 -41 -5 -93 -9 -116 -5 -23 -4 -44 0 -45 5 -2 5 -23
-1 -48 -9 -42 -9 -42 -7 -8 2 22 -1 34 -6 29 -5 -5 -9 -36 -10 -70 -1 -33 -5
-61 -9 -61 -4 0 -10 -17 -13 -37 -12 -72 -87 -359 -127 -488 -102 -325 -276
-730 -380 -882 -16 -24 -25 -43 -21 -43 18 0 119 167 170 280 156 342 273 688
394 1154 13 49 24 85 26 80 7 -27 33 -498 33 -609 0 -133 -20 -384 -41 -500
-6 -37 -9 -68 -6 -71 15 -16 50 273 63 516 6 124 2 202 -26 610 -5 74 -12 189
-16 255 -3 66 -8 122 -10 124 -2 2 -4 -29 -4 -70z"/>
<path d="M152 3495 c0 -16 4 -43 8 -60 l8 -30 0 30 c0 17 -4 44 -8 60 l-8 30
0 -30z"/>
<path d="M810 3423 c-13 -37 -25 -75 -28 -83 -3 -10 -2 -12 6 -5 12 11 54 146
48 152 -2 2 -14 -26 -26 -64z"/>
<path d="M4085 3460 c-3 -5 -2 -10 4 -10 5 0 13 5 16 10 3 6 2 10 -4 10 -5 0
-13 -4 -16 -10z"/>
<path d="M4139 3440 c-4 -10 11 -31 45 -60 l51 -45 -29 39 c-22 29 -25 38 -12
33 10 -4 15 -3 11 3 -4 6 -12 10 -18 9 -26 -3 -36 2 -39 19 -3 14 -5 14 -9 2z"/>
<path d="M345 3372 c17 -19 39 -38 50 -44 11 -6 16 -7 10 -2 -5 5 -28 25 -50
44 l-40 35 30 -33z"/>
<path d="M476 3283 c-6 -14 -5 -15 5 -6 7 7 10 15 7 18 -3 3 -9 -2 -12 -12z"/>
<path d="M5860 3280 c-6 -11 -8 -20 -6 -20 3 0 10 9 16 20 6 11 8 20 6 20 -3
0 -10 -9 -16 -20z"/>
<path d="M745 3230 c-9 -28 -39 -98 -66 -155 -52 -110 -62 -142 -28 -86 45 74
91 173 105 227 19 72 11 82 -11 14z"/>
<path d="M1022 3237 c-15 -18 -54 -119 -48 -125 3 -3 9 4 12 14 4 10 18 43 30
72 23 53 25 62 6 39z"/>
<path d="M5796 3180 c-25 -38 -44 -70 -41 -70 2 0 22 26 43 58 47 70 54 82 49
82 -2 0 -25 -31 -51 -70z"/>
<path d="M4511 3150 c-119 -112 -246 -188 -581 -348 l-25 -12 25 6 c51 11 407
196 470 243 87 66 232 205 208 201 -2 -1 -45 -41 -97 -90z"/>
<path d="M1279 3203 c-13 -16 -12 -17 4 -4 9 7 17 15 17 17 0 8 -8 3 -21 -13z"/>
<path d="M5597 3153 c-14 -21 -39 -57 -57 -80 -17 -24 -30 -43 -27 -43 5 0 96
121 111 148 16 27 -3 10 -27 -25z"/>
<path d="M1227 3133 c-20 -27 -74 -87 -120 -134 -67 -70 -96 -92 -159 -122
-43 -20 -78 -38 -78 -41 0 -3 35 11 78 30 42 20 101 42 130 49 30 7 58 17 64
23 7 7 -2 8 -28 1 -22 -4 -43 -9 -48 -9 -5 0 23 30 61 68 39 37 78 78 88 92
l17 25 -7 -30 c-32 -133 -32 -134 -20 -139 7 -2 25 3 41 11 16 9 72 33 124 54
52 21 87 38 77 38 -26 1 -136 -37 -186 -65 -24 -13 -45 -23 -46 -22 -1 2 10
51 25 111 14 59 26 107 25 107 0 0 -18 -21 -38 -47z"/>
<path d="M2215 3090 c-8 -16 -15 -35 -15 -42 1 -7 7 2 15 20 8 17 18 32 22 32
18 -1 45 -53 41 -80 -2 -16 -1 -27 4 -24 13 8 9 52 -7 83 -21 42 -42 46 -60
11z"/>
<path d="M6011 3104 c0 -11 3 -14 6 -6 3 7 2 16 -1 19 -3 4 -6 -2 -5 -13z"/>
<path d="M885 3009 c-52 -58 -170 -163 -201 -180 -29 -15 -102 -79 -91 -79 17
0 179 125 244 188 62 61 103 112 90 112 -3 0 -22 -19 -42 -41z"/>
<path d="M193 2885 c0 -27 2 -38 4 -22 2 15 2 37 0 50 -2 12 -4 0 -4 -28z"/>
<path d="M4671 2884 c15 -22 73 -74 83 -74 6 0 -8 14 -64 65 -22 20 -28 23
-19 9z"/>
<path d="M582 2842 c-25 -53 -66 -201 -59 -208 3 -3 23 52 46 122 22 71 39
129 37 131 -1 2 -12 -18 -24 -45z"/>
<path d="M1730 2860 c-8 -5 -25 -10 -37 -10 -13 0 -98 -22 -190 -49 -158 -45
-243 -81 -243 -102 0 -13 2 -12 51 15 24 14 71 32 104 41 33 9 79 23 103 31
51 17 52 17 52 3 0 -15 81 -202 93 -214 7 -6 7 -3 2 10 -4 11 -25 65 -46 120
-21 54 -37 100 -36 102 2 1 41 12 87 24 47 12 89 26 95 31 13 11 -16 10 -35
-2z"/>
<path d="M4917 2840 c-9 -11 -13 -20 -7 -20 5 0 14 9 20 20 6 11 9 20 8 20 -2
0 -11 -9 -21 -20z"/>
<path d="M5570 2822 c16 -16 34 -49 40 -73 16 -58 7 -218 -20 -351 -21 -101
-21 -144 -1 -71 37 130 56 397 33 455 -12 30 -50 68 -68 68 -7 0 0 -13 16 -28z"/>
<path d="M756 2780 c-71 -41 -191 -139 -182 -148 3 -2 41 24 84 59 44 35 104
78 133 96 30 18 49 32 44 33 -6 0 -41 -18 -79 -40z"/>
<path d="M3775 2750 c-13 -6 -15 -9 -5 -9 8 0 22 4 30 9 18 12 2 12 -25 0z"/>
<path d="M4905 2730 c11 -5 29 -8 40 -8 16 0 15 2 -5 8 -34 11 -60 11 -35 0z"/>
<path d="M5270 2731 c-15 -4 -20 -10 -13 -14 13 -8 43 1 43 14 0 5 -1 9 -2 8
-2 -1 -14 -4 -28 -8z"/>
<path d="M4798 2687 c-59 -53 -197 -163 -265 -212 -29 -20 -53 -39 -53 -41 0
-11 198 125 273 187 l38 32 -13 -29 c-16 -38 -162 -246 -202 -288 -43 -46
-134 -79 -218 -80 -47 -1 -60 -3 -45 -9 33 -13 126 -2 180 22 27 12 47 17 45
12 -1 -5 -41 -53 -87 -106 -45 -54 -77 -95 -70 -93 8 2 55 54 104 115 71 87
101 116 143 137 29 14 58 26 66 26 7 0 60 23 117 52 132 66 126 64 110 45 -9
-11 -10 -17 -2 -17 6 0 11 5 11 10 0 22 4 26 49 52 27 17 39 28 28 28 -10 0
-33 -11 -50 -24 -37 -28 -257 -139 -263 -133 -3 2 15 17 38 32 54 36 197 149
193 153 -2 2 -41 -25 -86 -61 -107 -81 -205 -147 -219 -147 -7 0 3 19 20 43
96 127 218 323 208 332 -2 2 -24 -15 -50 -38z"/>
<path d="M4971 2716 c8 -8 78 -10 85 -3 4 4 -14 7 -41 7 -27 0 -46 -2 -44 -4z"/>
<path d="M5080 2710 c0 -6 12 -10 27 -10 29 0 24 12 -7 17 -11 2 -20 -2 -20
-7z"/>
<path d="M5178 2713 c12 -2 32 -2 45 0 12 2 2 4 -23 4 -25 0 -35 -2 -22 -4z"/>
<path d="M6916 2684 c-4 -20 -5 -38 -3 -40 3 -3 8 11 11 32 4 20 5 38 3 40 -3
3 -8 -11 -11 -32z"/>
<path d="M5370 2690 c-20 -16 -22 -20 -7 -20 9 0 17 -4 17 -10 0 -5 6 -9 13
-7 15 3 61 -88 54 -108 -9 -22 -83 -65 -114 -66 -19 -1 -13 -4 17 -9 25 -4 58
-3 74 1 37 11 41 7 39 -42 -2 -48 -26 -79 -105 -140 -65 -49 -73 -59 -27 -32
47 27 118 92 133 122 19 37 20 205 1 266 -8 27 -12 51 -10 55 10 16 -62 7 -85
-10z m75 -20 c3 -5 1 -10 -4 -10 -6 0 -11 5 -11 10 0 6 2 10 4 10 3 0 8 -4 11
-10z m5 -41 c0 -6 -4 -7 -10 -4 -5 3 -10 11 -10 16 0 6 5 7 10 4 6 -3 10 -11
10 -16z m-10 -139 c0 -5 -6 -10 -14 -10 -8 0 -21 -3 -30 -6 -9 -3 -16 -1 -16
4 0 10 19 18 48 21 6 0 12 -3 12 -9z"/>
<path d="M1123 2631 l-101 -58 -46 28 c-59 37 -70 37 -19 0 22 -16 52 -44 67
-62 26 -32 27 -32 23 -9 -5 22 2 29 63 64 72 41 143 95 125 96 -6 0 -56 -26
-112 -59z"/>
<path d="M3448 2683 c6 -2 18 -2 25 0 6 3 1 5 -13 5 -14 0 -19 -2 -12 -5z"/>
<path d="M5215 2680 c-3 -6 1 -7 9 -4 18 7 21 14 7 14 -6 0 -13 -4 -16 -10z"/>
<path d="M3588 2673 c7 -3 16 -2 19 1 4 3 -2 6 -13 5 -11 0 -14 -3 -6 -6z"/>
<path d="M3708 2673 c12 -2 32 -2 45 0 12 2 2 4 -23 4 -25 0 -35 -2 -22 -4z"/>
<path d="M3762 2650 c-34 -16 -80 -35 -102 -41 -22 -7 -38 -14 -36 -17 9 -9
135 37 191 70 47 28 17 21 -53 -12z"/>
<path d="M5179 2656 c-7 -12 -5 -36 4 -33 7 3 11 9 10 15 -2 6 3 9 11 6 8 -3
17 -1 20 4 3 5 -6 10 -19 10 -14 0 -25 -1 -26 -2z"/>
<path d="M5122 2618 c-18 -11 -31 -23 -28 -25 8 -8 65 20 71 34 6 17 -4 15
-43 -9z"/>
<path d="M6890 2580 c-6 -23 -9 -44 -7 -46 2 -3 9 14 15 38 6 23 9 44 7 46 -2
2 -9 -15 -15 -38z"/>
<path d="M4960 2595 c-7 -8 -9 -15 -6 -15 4 0 14 7 22 15 9 8 11 15 6 15 -5 0
-15 -7 -22 -15z"/>
<path d="M1136 2578 c-12 -40 -19 -351 -8 -378 6 -18 11 36 14 185 3 116 4
211 3 213 -1 1 -5 -8 -9 -20z"/>
<path d="M1471 2534 c0 -11 3 -14 6 -6 3 7 2 16 -1 19 -3 4 -6 -2 -5 -13z"/>
<path d="M3465 2530 c10 -11 20 -20 23 -20 3 0 -3 9 -13 20 -10 11 -20 20 -23
20 -3 0 3 -9 13 -20z"/>
<path d="M6664 2443 c-94 -176 -139 -251 -232 -388 -52 -77 -88 -134 -80 -127
57 47 392 602 363 602 -2 0 -25 -39 -51 -87z"/>
<path d="M1473 2465 c6 -49 75 -280 82 -273 5 4 -74 311 -82 318 -3 3 -3 -17
0 -45z"/>
<path d="M3519 2487 c27 -30 102 -77 123 -77 7 0 -14 16 -47 36 -33 20 -69 43
-80 52 -13 11 -11 7 4 -11z"/>
<path d="M1435 2480 c-3 -5 -1 -10 4 -10 6 0 11 5 11 10 0 6 -2 10 -4 10 -3 0
-8 -4 -11 -10z"/>
<path d="M7352 2419 c-1 -42 -4 -105 -7 -140 l-4 -64 10 60 c5 33 8 96 6 140
l-3 80 -2 -76z"/>
<path d="M980 2470 c-21 -7 -21 -8 -5 -9 11 0 27 4 35 9 18 11 5 11 -30 0z"/>
<path d="M1412 2433 c-6 -15 -30 -95 -53 -178 -36 -129 -42 -164 -43 -252 -1
-57 -4 -103 -8 -103 -4 0 -1 -15 6 -32 7 -18 16 -42 20 -52 3 -10 9 -16 12
-13 3 3 0 15 -6 27 -15 28 -15 228 0 295 6 28 29 112 52 188 22 76 38 140 35
143 -2 3 -9 -8 -15 -23z"/>
<path d="M1015 2439 c-16 -5 -70 -16 -119 -25 -93 -16 -143 -42 -196 -99 -14
-15 -35 -31 -47 -36 -13 -5 -23 -14 -23 -20 0 -8 4 -8 15 1 31 26 26 0 -14
-66 -23 -37 -41 -73 -41 -78 0 -6 10 5 22 24 12 19 25 37 29 40 3 3 14 22 24
43 20 43 94 121 134 141 14 7 61 21 104 30 88 20 193 55 162 54 -11 0 -33 -4
-50 -9z"/>
<path d="M6504 2367 c-21 -34 -75 -116 -119 -182 -103 -154 -100 -149 -87
-141 22 14 258 374 249 382 -2 2 -21 -24 -43 -59z"/>
<path d="M4236 2390 c-32 -10 -101 -18 -158 -19 -21 -1 -38 -6 -38 -12 0 -6 8
-8 18 -5 9 3 53 8 97 12 43 3 93 12 110 19 34 15 16 18 -29 5z"/>
<path d="M4814 2358 c-82 -91 -88 -99 -72 -93 14 6 53 49 101 113 19 24 0 11
-29 -20z"/>
<path d="M3720 2331 c-63 -21 -128 -45 -145 -55 -16 -9 -23 -15 -15 -12 8 3
71 23 140 46 69 23 142 42 163 43 20 1 37 5 37 9 0 17 -70 5 -180 -31z"/>
<path d="M4295 2327 c-39 -24 -107 -63 -153 -87 -45 -23 -81 -45 -78 -47 10
-11 306 156 306 173 0 7 -5 4 -75 -39z"/>
<path d="M73 2353 c15 -2 37 -2 50 0 12 2 0 4 -28 4 -27 0 -38 -2 -22 -4z"/>
<path d="M1764 2348 c3 -9 16 -50 30 -90 14 -40 30 -93 36 -117 6 -23 13 -41
16 -38 8 7 -37 158 -62 212 -14 28 -22 42 -20 33z"/>
<path d="M3938 2353 c18 -2 45 -2 60 0 15 2 0 4 -33 4 -33 0 -45 -2 -27 -4z"/>
<path d="M4183 2334 c-20 -18 -22 -22 -7 -15 21 10 52 41 41 41 -3 0 -19 -12
-34 -26z"/>
<path d="M5225 2344 c-16 -8 -22 -12 -12 -9 68 19 98 18 125 -6 20 -18 23 -19
12 -4 -8 11 -19 23 -25 27 -16 12 -68 8 -100 -8z"/>
<path d="M4084 2294 l-59 -56 63 52 c56 47 69 60 59 60 -2 0 -30 -25 -63 -56z"/>
<path d="M5942 2330 c0 -14 2 -19 5 -12 2 6 2 18 0 25 -3 6 -5 1 -5 -13z"/>
<path d="M140 2319 c0 -5 5 -7 10 -4 6 3 10 8 10 11 0 2 -4 4 -10 4 -5 0 -10
-5 -10 -11z"/>
<path d="M5561 2264 c0 -11 3 -14 6 -6 3 7 2 16 -1 19 -3 4 -6 -2 -5 -13z"/>
<path d="M5922 2118 c-7 -84 -21 -206 -32 -271 -22 -133 -25 -161 -11 -137 19
32 75 560 59 560 -2 0 -10 -69 -16 -152z"/>
<path d="M1771 2244 c0 -11 3 -14 6 -6 3 7 2 16 -1 19 -3 4 -6 -2 -5 -13z"/>
<path d="M1597 2193 c-10 -95 -20 -328 -14 -323 7 6 30 371 24 377 -3 2 -7
-22 -10 -54z"/>
<path d="M5502 2179 c-44 -48 -73 -68 -165 -113 -62 -29 -119 -57 -127 -60 -8
-3 -1 -3 15 0 101 19 261 116 313 188 40 56 22 49 -36 -15z"/>
<path d="M3985 2204 c-18 -16 -22 -22 -9 -15 18 9 53 42 43 41 -2 -1 -17 -12
-34 -26z"/>
<path d="M3382 2173 c-24 -24 -24 -25 -2 -8 42 33 44 35 37 35 -4 0 -19 -12
-35 -27z"/>
<path d="M4020 2180 c-8 -5 -10 -10 -5 -10 6 0 17 5 25 10 8 5 11 10 5 10 -5
0 -17 -5 -25 -10z"/>
<path d="M1778 2168 c-2 -7 -3 -28 -2 -45 1 -18 2 -51 3 -73 0 -22 6 -40 12
-40 6 0 8 8 5 18 -3 9 -6 47 -7 85 -2 68 -4 77 -11 55z"/>
<path d="M643 2120 c0 -30 2 -43 4 -27 2 15 2 39 0 55 -2 15 -4 2 -4 -28z"/>
<path d="M4540 2057 c-63 -62 -149 -135 -190 -162 -175 -116 -410 -213 -603
-250 -81 -15 -124 -32 -54 -21 20 3 54 8 75 11 134 20 377 116 532 212 74 46
212 153 227 176 5 7 31 33 58 59 l50 47 -1 -39 c-3 -59 -3 -62 -13 -55 -5 3
-13 0 -17 -6 -4 -8 -3 -9 4 -5 7 4 12 3 12 -2 0 -12 -93 -322 -115 -382 -68
-191 -73 -200 -184 -310 -138 -137 -288 -263 -304 -254 -6 4 4 -10 23 -30 47
-50 142 -94 253 -116 138 -28 170 -29 173 -6 8 59 29 123 43 133 34 26 -2 11
-63 -27 -36 -21 -87 -50 -113 -64 l-48 -24 -75 24 c-76 24 -170 75 -170 93 0
6 17 22 38 38 58 43 253 216 297 264 22 24 60 69 84 99 25 30 60 72 80 92 19
21 33 40 30 42 -2 2 -26 -21 -53 -52 -27 -32 -46 -48 -42 -37 28 69 89 238
126 342 l42 121 29 -33 c41 -47 71 -49 212 -15 67 16 148 34 180 40 32 7 57
14 54 16 -7 7 -145 -16 -249 -42 -114 -28 -131 -29 -163 -8 -47 31 -63 72 -57
149 2 39 9 76 14 83 6 6 7 12 2 12 -5 0 -61 -51 -124 -113z m-86 -1091 l-7
-47 -56 7 c-31 3 -60 9 -64 11 -5 3 22 22 60 43 37 21 69 37 71 36 1 -2 -1
-24 -4 -50z"/>
<path d="M1741 2144 c0 -11 3 -14 6 -6 3 7 2 16 -1 19 -3 4 -6 -2 -5 -13z"/>
<path d="M1136 2101 c7 -52 35 -136 59 -177 9 -16 14 -22 11 -14 -3 8 -17 53
-31 100 -42 132 -46 141 -39 91z"/>
<path d="M6746 2125 c-9 -26 -7 -32 5 -12 6 10 9 21 6 23 -2 3 -7 -2 -11 -11z"/>
<path d="M3805 2110 c-16 -7 -17 -9 -3 -9 9 -1 20 4 23 9 7 11 7 11 -20 0z"/>
<path d="M536 2018 c-15 -24 -51 -62 -79 -85 -140 -112 -178 -145 -174 -150 7
-7 38 11 88 52 24 19 60 49 80 65 l37 29 12 -29 c7 -17 17 -30 22 -30 5 0 2
10 -6 22 -20 29 -20 52 0 69 18 14 58 89 51 95 -2 2 -16 -15 -31 -38z"/>
<path d="M640 2050 c0 -40 66 -188 78 -175 3 3 -2 13 -11 23 -10 10 -17 26
-17 35 0 9 -4 18 -9 22 -6 3 -13 26 -17 50 -6 40 -24 74 -24 45z"/>
<path d="M6707 2018 c-22 -54 -16 -60 8 -8 10 22 16 42 13 45 -3 3 -12 -14
-21 -37z"/>
<path d="M1860 2039 c0 -24 74 -170 104 -206 25 -30 45 -38 184 -79 9 -2 11
-18 7 -56 -3 -29 -2 -73 3 -98 9 -43 10 -41 12 40 1 47 2 91 1 98 -2 13 29 16
78 6 24 -5 31 -12 31 -30 0 -13 11 -67 25 -120 14 -53 25 -105 25 -115 0 -10
4 -19 8 -19 8 0 -10 115 -36 227 -5 23 -8 44 -6 46 8 8 118 -14 125 -24 6 -10
12 -111 13 -209 0 -19 -3 -67 -7 -107 -7 -66 -12 -77 -59 -137 -53 -70 -76
-86 -52 -36 33 65 59 186 68 315 5 61 3 56 -12 -35 l-17 -105 -40 -13 c-22 -8
-60 -17 -85 -22 -120 -21 -256 -54 -266 -64 -6 -6 -17 -45 -23 -86 -19 -115
-41 -224 -48 -230 -3 -3 -3 9 0 25 13 65 18 215 7 215 -5 0 -10 -9 -10 -19 0
-11 -15 -52 -34 -93 -53 -116 -66 -148 -56 -148 5 0 25 28 45 63 l36 62 -6
-55 c-7 -63 -55 -244 -137 -512 l-11 -37 -23 49 c-44 95 -106 191 -120 186
-25 -10 -15 11 47 90 34 44 71 99 83 124 12 25 27 54 33 65 24 45 43 96 33 90
-6 -4 -33 -50 -59 -104 -55 -108 -149 -230 -163 -209 -5 8 -7 4 -6 -12 3 -23
-1 -25 -43 -28 -34 -2 -51 2 -64 14 -15 16 -19 16 -29 3 -13 -18 -45 -33 -66
-30 -13 2 -13 0 -1 -8 8 -5 21 -7 29 -3 9 3 13 1 9 -5 -5 -7 1 -9 15 -5 20 5
21 6 3 12 -17 6 -17 7 4 13 13 3 32 2 42 -2 17 -6 15 -10 -21 -30 -27 -15 -45
-20 -53 -13 -8 6 -26 3 -52 -9 -22 -10 -32 -18 -22 -18 10 -1 29 6 42 15 14 9
25 12 25 7 0 -6 -28 -25 -62 -43 -123 -65 -250 -161 -230 -174 6 -3 13 1 16
10 4 9 9 14 12 11 9 -9 -81 -159 -112 -188 -15 -13 -23 -17 -19 -9 5 10 1 8
-13 -4 -12 -11 -22 -25 -22 -33 0 -7 -4 -13 -8 -13 -14 0 -58 -43 -65 -62 -4
-10 -11 -18 -17 -18 -6 0 -8 4 -5 10 3 5 -20 -7 -52 -28 -32 -22 -91 -58 -130
-81 -40 -24 -73 -45 -73 -47 0 -2 55 -4 123 -4 l122 0 22 38 c32 56 239 269
289 298 30 18 44 33 44 47 1 32 33 97 66 133 54 59 265 173 320 174 17 0 44
-33 44 -54 0 -2 -30 -17 -67 -32 -87 -37 -202 -100 -229 -125 -12 -11 -29 -39
-39 -62 -9 -23 -23 -56 -30 -73 -9 -20 -32 -42 -67 -62 -63 -36 -239 -203
-262 -249 l-17 -33 1270 0 1269 0 118 25 c292 60 341 67 499 72 171 5 341 -9
575 -48 82 -14 129 -26 137 -37 23 -29 23 -6 -2 103 -13 60 -27 128 -31 151
l-6 43 38 6 c129 20 169 31 259 75 154 75 304 194 456 362 51 57 96 104 99
106 4 1 -43 -96 -103 -215 -119 -240 -144 -273 -262 -351 -162 -107 -279 -146
-359 -120 -25 8 -43 11 -40 6 21 -33 144 -39 246 -12 65 16 208 81 243 109 11
9 -9 2 -45 -16 -84 -41 -191 -81 -198 -74 -3 3 -1 5 4 5 16 0 143 79 211 131
59 45 133 119 119 119 -4 0 8 27 26 60 24 43 37 58 48 53 8 -3 30 -11 48 -17
17 -6 32 -14 32 -18 0 -17 -87 -113 -145 -159 -77 -62 -80 -78 -3 -21 57 43
109 95 153 155 23 32 33 37 66 37 21 0 82 16 136 35 54 19 99 35 99 35 1 0 5
-16 8 -35 7 -36 95 -220 102 -212 2 2 -14 42 -35 88 -22 46 -45 107 -52 134
-15 62 -15 62 -36 43 -25 -22 -253 -88 -253 -74 0 2 19 35 42 72 45 75 158
303 158 319 0 6 -38 -62 -83 -150 -46 -88 -96 -179 -112 -203 -30 -45 -42 -48
-112 -21 l-22 8 23 48 c13 26 49 104 81 173 32 68 74 147 94 175 43 58 54 75
48 75 -3 0 -33 -37 -67 -82 -73 -97 -150 -182 -158 -174 -3 3 2 14 10 23 8 10
18 25 23 33 4 8 -14 -10 -40 -40 -27 -30 -80 -86 -119 -124 -42 -42 -56 -59
-33 -42 21 15 40 26 43 24 16 -16 -229 -197 -341 -252 -123 -60 -182 -76 -284
-75 l-86 0 95 28 c52 15 118 37 145 49 107 44 127 53 123 57 -2 3 -37 -9 -77
-25 -86 -35 -210 -74 -216 -68 -3 2 -9 35 -15 74 -5 38 -13 79 -16 91 -4 16 0
23 18 28 32 10 150 76 145 82 -3 2 -31 -9 -63 -26 -138 -69 -413 -186 -421
-178 -1 2 28 25 66 51 38 26 95 73 126 104 31 31 68 62 83 68 23 11 13 12 -74
13 -130 1 -250 30 -323 78 -29 19 -89 70 -133 113 -43 43 -72 67 -63 54 22
-33 20 -35 -30 -33 -24 2 -48 0 -51 -4 -4 -4 18 -7 50 -7 56 0 59 -2 122 -57
47 -41 61 -59 51 -65 -15 -8 -82 -15 -497 -53 -522 -47 -737 -58 -1018 -53
-198 5 -236 8 -294 27 -38 12 -68 24 -68 26 0 3 11 42 24 87 27 93 78 385 97
552 11 98 15 113 40 139 15 16 32 27 36 24 5 -3 9 3 9 13 0 17 -4 16 -36 -8
-26 -20 -19 -9 28 45 60 68 88 90 100 78 3 -3 0 -5 -6 -5 -7 0 -12 -5 -12 -10
0 -6 18 4 40 21 30 24 37 35 28 42 -9 6 -8 7 4 3 10 -3 19 -2 22 2 2 4 91 1
196 -8 181 -15 465 -18 478 -6 3 3 -8 6 -24 6 -135 0 -398 10 -484 19 -58 5
-181 17 -275 26 -300 27 -526 67 -588 103 -33 20 -63 62 -111 157 -20 39 -36
63 -36 54z m790 -343 c0 -2 -8 -10 -17 -17 -16 -13 -17 -12 -4 4 13 16 21 21
21 13z m-310 -350 c0 -22 -11 -46 -22 -46 -5 0 -7 4 -3 9 3 5 1 12 -5 16 -5 3
-10 1 -10 -4 0 -6 -8 -11 -18 -11 -10 0 -27 -7 -38 -15 -10 -8 -23 -15 -29
-15 -5 0 1 7 13 16 32 22 27 33 -13 24 -61 -14 -38 4 28 21 80 21 97 22 97 5z
m-203 -32 c-3 -3 -12 -4 -19 -1 -8 3 -5 6 6 6 11 1 17 -2 13 -5z m3303 -599
c-30 -30 -56 -52 -58 -50 -3 3 19 29 48 60 30 30 56 52 59 49 3 -2 -19 -29
-49 -59z m-845 -75 c-10 -11 -22 -17 -28 -13 -5 3 -7 1 -4 -5 8 -11 -88 -93
-107 -91 -7 0 -6 3 2 6 6 2 10 9 7 14 -4 5 2 6 11 2 13 -5 16 -2 12 9 -4 10
-1 15 10 14 9 0 18 6 18 14 1 8 2 21 3 28 0 7 6 10 12 6 8 -5 8 -9 -1 -14 -8
-5 -9 -10 -2 -14 6 -3 14 -1 17 4 11 18 -24 49 -59 53 -17 2 4 4 48 5 76 1 78
0 61 -18z m-92 -22 c-9 -10 -19 -15 -22 -12 -3 4 0 9 7 11 6 3 10 8 8 12 -3 4
1 8 9 8 13 0 12 -4 -2 -19z m187 -115 c0 -20 -4 -24 -17 -18 -23 9 -62 17 -45
9 21 -10 35 -56 20 -66 -23 -14 -30 -8 -26 22 4 23 1 30 -9 26 -9 -4 -11 -1
-7 6 5 8 2 9 -10 5 -10 -4 -22 -7 -27 -7 -4 0 -6 -7 -2 -16 5 -14 1 -15 -28
-10 -24 5 -30 4 -19 -3 8 -5 11 -13 7 -18 -5 -4 -12 -1 -16 6 -5 7 -14 10 -20
7 -6 -4 -11 -2 -11 3 0 6 6 11 13 11 6 0 50 18 97 39 47 21 88 36 93 34 4 -2
7 -16 7 -30z m-10 -43 c0 -5 -5 -10 -11 -10 -5 0 -7 5 -4 10 3 6 8 10 11 10 2
0 4 -4 4 -10z m22 -30 c2 -22 0 -40 -4 -40 -5 0 -8 18 -8 40 0 22 2 40 4 40 2
0 6 -18 8 -40z m-128 -19 c3 -5 -1 -11 -9 -14 -9 -4 -12 -1 -8 9 6 16 10 17
17 5z m-2454 -21 c-6 -11 -13 -20 -16 -20 -2 0 0 9 6 20 6 11 13 20 16 20 2 0
0 -9 -6 -20z m2537 -36 c-1 -2 -27 -5 -57 -8 l-55 -5 55 11 c30 6 50 13 44 15
-7 2 -9 14 -6 26 5 20 6 20 13 -8 5 -16 7 -30 6 -31z m53 14 c0 -17 -38 -7
-42 10 -5 17 -2 17 18 8 13 -6 24 -14 24 -18z m-165 12 c3 -5 2 -10 -4 -10 -5
0 -13 5 -16 10 -3 6 -2 10 4 10 5 0 13 -4 16 -10z m45 -10 c0 -5 -5 -10 -11
-10 -5 0 -7 5 -4 10 3 6 8 10 11 10 2 0 4 -4 4 -10z m108 -60 c19 0 22 -5 22
-37 0 -41 -9 -41 -12 0 -2 23 -7 27 -38 29 -19 1 -50 1 -67 0 -19 -1 -33 3
-33 10 0 7 17 9 53 4 28 -3 62 -6 75 -6z m-31 -26 c-3 -3 -12 -4 -19 -1 -8 3
-5 6 6 6 11 1 17 -2 13 -5z m23 -20 c0 -8 -5 -12 -10 -9 -6 4 -8 11 -5 16 9
14 15 11 15 -7z m37 -66 c-3 -7 -5 -2 -5 12 0 14 2 19 5 13 2 -7 2 -19 0 -25z
m10 -40 c-3 -8 -6 -5 -6 6 -1 11 2 17 5 13 3 -3 4 -12 1 -19z"/>
<path d="M4656 511 c-3 -5 1 -11 9 -15 8 -3 15 -1 15 4 0 13 -18 22 -24 11z"/>
<path d="M4240 1948 c-41 -39 -70 -69 -63 -67 18 6 156 140 142 139 -2 -1 -38
-33 -79 -72z"/>
<path d="M6721 1980 c-12 -22 -20 -40 -18 -40 7 0 48 72 44 76 -2 2 -14 -14
-26 -36z"/>
<path d="M1795 1900 c2 -58 10 -125 18 -150 18 -55 21 -34 6 46 -6 32 -15 93
-20 134 -7 70 -8 69 -4 -30z"/>
<path d="M1280 1945 c0 -5 5 -17 10 -25 5 -8 10 -10 10 -5 0 6 -5 17 -10 25
-5 8 -10 11 -10 5z"/>
<path d="M1647 1880 c9 -104 23 -161 18 -70 -3 41 -10 89 -15 105 -7 22 -8 13
-3 -35z"/>
<path d="M6666 1923 c-6 -14 -5 -15 5 -6 7 7 10 15 7 18 -3 3 -9 -2 -12 -12z"/>
<path d="M1862 1890 c0 -14 2 -19 5 -12 2 6 2 18 0 25 -3 6 -5 1 -5 -13z"/>
<path d="M6647 1868 c-41 -67 -68 -120 -58 -114 14 9 83 127 77 133 -2 3 -11
-6 -19 -19z"/>
<path d="M7281 1835 c-47 -213 -204 -516 -355 -684 -72 -80 -102 -105 -168
-142 -29 -16 -46 -29 -38 -29 29 0 125 63 178 119 77 80 165 200 220 300 102
188 189 417 180 474 -3 14 -9 0 -17 -38z"/>
<path d="M4670 1830 c-24 -46 -26 -63 -5 -33 17 24 37 73 30 73 -3 0 -14 -18
-25 -40z"/>
<path d="M6391 1861 c0 -7 -23 -43 -50 -80 -124 -168 -293 -463 -306 -536 -6
-34 -11 -43 50 90 56 124 233 403 293 464 16 16 22 31 19 50 -2 14 -5 20 -6
12z"/>
<path d="M1886 1820 c3 -14 11 -32 16 -40 6 -10 7 -7 2 10 -3 14 -11 32 -16
40 -6 10 -7 7 -2 -10z"/>
<path d="M5424 1793 c-11 -27 -19 -74 -19 -109 0 -51 4 -66 28 -97 26 -35 32
-37 82 -37 52 0 160 18 153 25 -2 2 -37 -1 -78 -6 -101 -14 -134 -7 -154 35
-20 43 -21 130 -1 186 21 60 11 62 -11 3z"/>
<path d="M5232 1703 c-73 -232 -93 -305 -89 -310 6 -5 10 7 82 246 30 102 53
187 51 189 -3 2 -22 -54 -44 -125z"/>
<path d="M6745 1768 c-73 -223 -242 -577 -379 -791 l-37 -57 -32 15 -32 16 27
-25 28 -25 -60 -75 c-33 -42 -56 -76 -52 -76 8 0 36 34 113 132 10 14 29 21
55 23 109 6 296 42 229 44 -11 1 -35 -3 -53 -8 -17 -5 -32 -8 -32 -7 0 2 27
20 61 41 52 32 156 112 197 151 25 25 11 27 -15 2 -50 -46 -177 -135 -228
-160 -57 -28 -185 -63 -185 -51 0 3 20 37 44 77 67 107 101 169 166 301 89
182 219 509 207 521 -3 3 -13 -19 -22 -48z"/>
<path d="M6390 1789 c0 -8 -7 -69 -15 -134 -15 -125 -18 -172 -10 -163 18 18
47 289 32 304 -4 4 -7 1 -7 -7z"/>
<path d="M6149 1709 c-46 -45 -71 -71 -54 -58 44 36 151 139 144 139 -4 0 -44
-37 -90 -81z"/>
<path d="M4602 1693 c-37 -75 -38 -79 -18 -80 12 -1 16 1 9 4 -8 3 0 27 23 74
20 39 33 73 30 76 -2 3 -22 -30 -44 -74z"/>
<path d="M1920 1736 c0 -8 4 -17 9 -20 5 -4 7 3 4 14 -6 23 -13 26 -13 6z"/>
<path d="M3934 1735 c-23 -7 -51 -18 -63 -24 -12 -7 -67 -23 -124 -36 -75 -18
-87 -23 -47 -19 68 8 209 48 258 74 42 22 35 24 -24 5z"/>
<path d="M7136 1735 c-9 -26 -7 -32 5 -12 6 10 9 21 6 23 -2 3 -7 -2 -11 -11z"/>
<path d="M3230 1736 c0 -2 8 -10 18 -17 15 -13 16 -12 3 4 -13 16 -21 21 -21
13z"/>
<path d="M6530 1680 c-23 -33 -68 -92 -100 -131 -33 -39 -60 -77 -60 -83 0
-12 11 0 115 136 73 96 101 138 91 138 -3 0 -24 -27 -46 -60z"/>
<path d="M3765 1710 l-40 -7 35 -1 c19 0 46 4 60 8 32 10 2 10 -55 0z"/>
<path d="M95 1608 c-55 -56 -87 -93 -70 -83 44 27 198 185 179 185 -5 -1 -54
-46 -109 -102z"/>
<path d="M1831 1684 c0 -11 3 -14 6 -6 3 7 2 16 -1 19 -3 4 -6 -2 -5 -13z"/>
<path d="M3635 1693 c-11 -2 -69 -8 -130 -13 l-110 -9 125 5 c69 3 141 9 160
14 34 8 34 8 5 8 -16 -1 -39 -2 -50 -5z"/>
<path d="M5096 1685 c-9 -26 -7 -32 5 -12 6 10 9 21 6 23 -2 3 -7 -2 -11 -11z"/>
<path d="M7112 1668 c-10 -30 -10 -31 3 -14 13 17 21 46 12 46 -1 0 -8 -15
-15 -32z"/>
<path d="M5350 1649 c-14 -52 -8 -110 15 -145 21 -33 110 -74 155 -73 l35 1
-42 8 c-48 10 -74 22 -120 56 -25 19 -32 33 -37 71 -4 27 -2 63 4 82 5 19 8
37 5 39 -2 2 -9 -15 -15 -39z"/>
<path d="M6568 1603 c-105 -127 -277 -295 -368 -360 -97 -69 -166 -106 -180
-98 -6 3 -10 2 -10 -3 0 -5 -17 -17 -37 -26 l-38 -16 34 5 c33 5 33 4 28 -25
-4 -16 -9 -78 -11 -137 l-5 -108 14 130 c8 72 17 136 20 143 2 7 17 18 32 24
49 22 132 77 213 144 44 36 80 63 80 61 0 -18 -47 -132 -82 -199 -24 -46 -42
-86 -40 -91 1 -4 -51 -61 -115 -127 -65 -66 -115 -120 -111 -120 26 0 300 297
379 410 36 52 11 26 -75 -79 -58 -71 -91 -93 -43 -29 34 46 50 79 86 183 29
82 39 97 109 170 93 96 201 225 189 225 -3 0 -34 -35 -69 -77z"/>
<path d="M4614 1648 l-19 -23 23 19 c12 11 22 21 22 23 0 8 -8 2 -26 -19z"/>
<path d="M5850 1655 c-14 -8 -20 -14 -15 -14 6 0 21 6 35 14 14 8 21 14 15 14
-5 0 -21 -6 -35 -14z"/>
<path d="M5071 1623 c-10 -26 -10 -27 4 -9 8 11 15 23 15 28 0 15 -7 8 -19
-19z"/>
<path d="M5695 1590 c-13 -5 -14 -9 -5 -9 8 0 24 4 35 9 13 5 14 9 5 9 -8 0
-24 -4 -35 -9z"/>
<path d="M5032 1548 c-12 -23 -21 -43 -19 -45 2 -1 14 15 26 38 13 22 21 42
19 44 -2 2 -13 -15 -26 -37z"/>
<path d="M7055 1528 c-14 -36 -74 -149 -133 -248 l-14 -25 21 25 c44 52 169
290 152 290 -5 0 -16 -19 -26 -42z"/>
<path d="M5851 1499 c-13 -5 -22 -11 -20 -14 8 -7 49 7 49 16 0 5 -1 9 -2 8
-2 0 -14 -5 -27 -10z"/>
<path d="M5795 1470 c-3 -6 1 -7 9 -4 18 7 21 14 7 14 -6 0 -13 -4 -16 -10z"/>
<path d="M6346 1443 c-6 -14 -5 -15 5 -6 7 7 10 15 7 18 -3 3 -9 -2 -12 -12z"/>
<path d="M5861 1434 c0 -11 3 -14 6 -6 3 7 2 16 -1 19 -3 4 -6 -2 -5 -13z"/>
<path d="M4885 1366 c-36 -39 -105 -92 -105 -80 0 4 -11 -3 -25 -16 -44 -41
-27 -41 39 0 35 22 65 40 68 40 3 0 -10 -43 -29 -96 -32 -94 -42 -135 -23
-103 22 38 71 193 67 210 -3 11 -2 17 2 15 7 -5 46 53 39 59 -1 2 -16 -11 -33
-29z"/>
<path d="M5846 1353 c-3 -21 -11 -108 -16 -193 -6 -85 -12 -160 -15 -167 -2
-6 -1 -14 2 -17 3 -3 8 -52 10 -108 3 -57 8 -120 13 -140 7 -34 5 -39 -24 -62
-18 -13 -61 -40 -97 -60 -35 -20 -58 -36 -51 -36 17 0 127 62 166 93 l28 23
-11 71 c-13 88 -14 334 -1 502 10 125 8 164 -4 94z"/>
<path d="M5114 1334 c-8 -20 -13 -38 -11 -40 2 -2 11 14 20 36 19 50 12 53 -9
4z"/>
<path d="M5760 1361 c0 -7 -116 -144 -194 -229 -28 -30 -205 -185 -259 -226
-23 -17 -75 -53 -116 -79 -40 -27 -71 -51 -68 -54 7 -6 164 95 232 151 113 92
232 194 292 250 35 33 63 56 63 53 0 -3 -22 -59 -50 -123 -27 -65 -48 -119
-46 -121 2 -3 65 127 99 207 16 37 35 95 41 126 3 10 7 27 11 37 4 9 4 17 1
17 -3 0 -6 -4 -6 -9z"/>
<path d="M4783 1342 c-5 -9 -41 -55 -78 -102 -37 -47 -53 -71 -36 -55 38 35
136 164 129 170 -2 2 -9 -4 -15 -13z"/>
<path d="M1871 1256 c-12 -13 -23 -30 -25 -37 -1 -8 -5 -20 -10 -27 -4 -7 -6
-16 -3 -19 3 -3 15 13 26 35 11 23 31 48 43 56 16 12 18 16 7 16 -9 0 -26 -11
-38 -24z"/>
<path d="M5076 1248 l-18 -33 21 25 c18 22 26 40 18 40 -1 0 -11 -15 -21 -32z"/>
<path d="M3990 1110 c6 -11 13 -20 16 -20 2 0 0 9 -6 20 -6 11 -13 20 -16 20
-2 0 0 -9 6 -20z"/>
<path d="M5186 1029 c-32 -17 -56 -32 -53 -35 5 -6 127 53 127 61 0 9 -13 4
-74 -26z"/>
<path d="M3969 1029 c-23 -19 -23 -20 -2 -10 12 6 25 16 28 21 10 16 -1 12
-26 -11z"/>
<path d="M4815 1010 c-62 -54 -131 -101 -163 -110 l-27 -8 26 -1 c26 -1 161
91 203 138 31 34 11 24 -39 -19z"/>
<path d="M3862 970 c-81 -42 -102 -57 -57 -40 35 13 135 69 135 76 0 6 3 7
-78 -36z"/>
<path d="M6640 960 c-8 -5 -10 -10 -5 -10 6 0 17 5 25 10 8 5 11 10 5 10 -5 0
-17 -5 -25 -10z"/>
<path d="M3600 946 c0 -3 9 -10 20 -16 11 -6 20 -8 20 -6 0 3 -9 10 -20 16
-11 6 -20 8 -20 6z"/>
<path d="M4895 920 c-19 -8 -19 -9 2 -9 12 -1 25 4 28 9 7 12 -2 12 -30 0z"/>
<path d="M1635 913 c-11 -3 -92 -23 -180 -45 -106 -26 -210 -44 -310 -54 -275
-27 -364 -52 -475 -135 -80 -59 -127 -113 -176 -204 -16 -27 -49 -77 -75 -110
-50 -65 -151 -219 -162 -248 -4 -10 -19 -25 -34 -33 -16 -9 -55 -31 -88 -49
l-60 -34 37 1 c21 1 35 5 32 10 -4 5 3 4 14 -3 16 -10 32 -5 113 39 52 28 90
52 84 52 -5 0 -1 8 10 16 20 16 20 16 -2 9 -36 -10 -27 1 26 33 68 42 181 161
181 190 0 15 34 32 46 24 6 -4 16 -16 23 -27 12 -19 12 -19 6 2 -6 21 -3 21
75 21 55 0 85 -5 95 -14 9 -10 15 -10 17 -2 3 8 9 8 25 0 12 -7 23 -8 25 -4 2
5 32 6 68 2 57 -6 67 -4 83 13 19 23 21 33 7 42 -6 3 -7 -1 -4 -9 4 -10 -1
-18 -10 -22 -22 -8 -35 5 -16 16 11 7 9 9 -8 7 -12 0 -22 -6 -22 -12 0 -12
-68 -17 -85 -7 -11 7 -17 8 -100 11 -67 3 -69 0 50 49 33 13 70 29 82 34 11 6
27 7 34 3 8 -5 10 -4 5 3 -4 7 -1 12 7 12 8 0 20 7 28 16 9 11 22 14 43 10 29
-6 30 -5 14 10 -15 15 -20 15 -65 -2 -26 -9 -52 -20 -58 -24 -5 -4 -52 -24
-104 -44 -75 -31 -100 -36 -130 -31 -20 4 -30 10 -23 12 15 6 16 23 1 23 -18
0 -38 -26 -30 -39 4 -6 15 -9 23 -6 9 4 19 1 23 -5 5 -8 -9 -11 -48 -9 -31 1
-62 -2 -70 -9 -10 -9 -17 -9 -27 1 -12 10 -12 9 -1 -5 10 -13 9 -22 -3 -47
-32 -61 -173 -181 -226 -193 -8 -2 -22 -12 -32 -23 -10 -12 -17 -15 -18 -7 0
6 3 12 8 12 4 0 18 16 31 35 13 19 28 33 33 32 6 -1 13 5 15 13 4 13 3 13 -7
0 -10 -13 -11 -12 -6 3 3 10 6 21 6 23 0 3 5 2 12 -2 7 -4 8 -3 4 4 -4 6 9 36
28 66 27 42 40 54 56 51 11 -2 20 1 20 7 0 5 -7 8 -15 4 -22 -8 -18 3 14 51
16 23 32 39 36 35 5 -4 5 1 2 10 -3 10 -2 20 3 23 4 3 10 0 12 -7 3 -7 7 -5
11 6 4 10 3 15 -3 11 -22 -13 -8 12 31 58 22 26 45 44 51 41 6 -4 8 -2 5 4 -8
12 84 88 131 108 17 8 48 21 67 29 20 8 84 21 143 29 92 13 242 34 372 52 32
5 33 4 17 -9 -10 -9 -14 -17 -10 -20 10 -6 35 7 34 17 -3 20 3 24 37 30 20 4
65 14 98 22 34 8 72 17 85 18 33 4 76 23 84 35 6 11 -5 12 -40 4z m-1305 -797
c0 -2 -8 -10 -17 -17 -16 -13 -17 -12 -4 4 13 16 21 21 21 13z m-43 -32 c-3
-3 -12 -4 -19 -1 -8 3 -5 6 6 6 11 1 17 -2 13 -5z m-27 -18 c0 -2 -7 -9 -15
-16 -13 -11 -14 -10 -9 4 5 14 24 23 24 12z m-60 -31 c-7 -8 -18 -15 -24 -15
-6 0 -2 7 8 15 25 19 32 19 16 0z"/>
<path d="M4538 903 c7 -3 16 -2 19 1 4 3 -2 6 -13 5 -11 0 -14 -3 -6 -6z"/>
<path d="M4753 903 c9 -2 23 -2 30 0 6 3 -1 5 -18 5 -16 0 -22 -2 -12 -5z"/>
<path d="M5550 890 c-6 -11 -8 -20 -6 -20 3 0 10 9 16 20 6 11 8 20 6 20 -3 0
-10 -9 -16 -20z"/>
<path d="M3708 893 c7 -3 16 -2 19 1 4 3 -2 6 -13 5 -11 0 -14 -3 -6 -6z"/>
<path d="M3767 883 c18 -2 50 -2 70 0 21 2 7 4 -32 4 -38 0 -55 -2 -38 -4z"/>
<path d="M1629 863 c-13 -16 -12 -17 4 -4 16 13 21 21 13 21 -2 0 -10 -8 -17
-17z"/>
<path d="M6215 850 c-16 -16 -25 -30 -19 -29 8 0 60 59 52 59 -3 0 -17 -13
-33 -30z"/>
<path d="M1526 841 c-4 -5 3 -7 14 -4 23 6 26 13 6 13 -8 0 -17 -4 -20 -9z"/>
<path d="M1455 830 c-7 -12 2 -12 30 0 19 8 19 9 -2 9 -12 1 -25 -3 -28 -9z"/>
<path d="M1540 815 l-25 -14 30 2 c22 1 29 -2 27 -13 -2 -8 0 -12 4 -7 12 12
12 47 0 47 -6 -1 -22 -7 -36 -15z"/>
<path d="M6080 753 c-52 -36 -97 -70 -99 -76 -7 -20 147 82 183 122 27 29 22
27 -84 -46z"/>
<path d="M1387 788 c6 -22 23 -24 23 -3 0 17 16 20 23 5 3 -6 4 -5 3 2 -1 7
-14 13 -28 14 -20 1 -24 -3 -21 -18z"/>
<path d="M1498 783 c26 -5 30 -23 5 -23 -13 0 -14 -3 -5 -12 9 -9 15 -8 26 7
16 23 5 36 -29 33 -17 -1 -17 -1 3 -5z"/>
<path d="M1296 771 c-4 -7 -5 -15 -2 -18 9 -9 19 4 14 18 -4 11 -6 11 -12 0z"/>
<path d="M6106 699 c-37 -44 -65 -83 -61 -87 4 -4 19 7 35 25 16 17 30 29 33
27 2 -2 18 12 36 32 18 19 31 38 28 41 -3 2 -13 -7 -22 -20 -9 -14 -23 -28
-31 -31 -9 -4 -3 10 13 31 32 40 46 63 41 63 -2 0 -34 -36 -72 -81z"/>
<path d="M975 750 c-47 -6 -37 -14 13 -10 20 1 26 -8 23 -36 -2 -13 75 -35 95
-27 28 11 13 24 -20 18 -28 -6 -36 -3 -50 16 -21 31 -20 37 7 42 36 7 -10 5
-68 -3z"/>
<path d="M1245 750 c-3 -5 3 -10 14 -10 12 0 21 5 21 10 0 6 -6 10 -14 10 -8
0 -18 -4 -21 -10z"/>
<path d="M1120 740 c0 -5 5 -10 10 -10 6 0 10 5 10 10 0 6 -4 10 -10 10 -5 0
-10 -4 -10 -10z"/>
<path d="M879 727 c5 -5 17 -5 28 2 16 9 15 10 -9 9 -16 -2 -24 -6 -19 -11z"/>
<path d="M1047 729 c8 -8 16 -8 30 0 16 9 14 10 -11 11 -22 0 -27 -3 -19 -11z"/>
<path d="M1186 733 c-17 -18 -3 -33 29 -33 19 0 35 4 35 9 0 11 -56 32 -64 24z"/>
<path d="M807 710 c-27 -22 -42 -26 -32 -10 7 11 -8 14 -18 3 -9 -8 23 -32 44
-33 14 0 45 47 36 56 -2 3 -15 -5 -30 -16z"/>
<path d="M1294 721 c4 -5 0 -12 -6 -14 -8 -3 -6 -6 5 -6 9 -1 17 6 17 14 0 8
-5 15 -11 15 -5 0 -8 -4 -5 -9z"/>
<path d="M920 680 c0 -5 7 -10 15 -10 8 0 15 5 15 10 0 6 -7 10 -15 10 -8 0
-15 -4 -15 -10z"/>
<path d="M830 665 c0 -8 2 -15 4 -15 2 0 6 7 10 15 3 8 1 15 -4 15 -6 0 -10
-7 -10 -15z"/>
<path d="M1230 665 c-10 -13 -9 -15 9 -15 11 0 21 4 21 9 0 18 -18 21 -30 6z"/>
<path d="M733 660 c-32 -13 -29 -22 3 -9 15 5 29 7 32 4 3 -3 0 -5 -7 -5 -18
0 -80 -68 -102 -113 -11 -21 -24 -35 -29 -32 -5 3 -7 0 -5 -8 3 -7 -3 -22 -15
-32 -24 -22 -25 -16 -5 32 8 20 13 38 11 40 -2 3 -10 -11 -17 -31 -14 -38 -30
-40 -23 -3 l5 22 -10 -22 c-6 -13 -15 -23 -21 -23 -6 0 -8 -5 -5 -11 4 -6 13
-8 20 -5 8 3 18 -7 25 -25 10 -22 16 -27 25 -19 9 8 15 7 19 -2 3 -7 3 -3 0 9
-3 14 3 29 18 44 13 12 17 18 9 14 -9 -5 -7 1 4 19 16 24 19 25 30 10 11 -15
12 -16 18 -1 4 10 2 16 -5 14 -26 -5 -14 23 32 75 57 64 55 83 -7 58z"/>
<path d="M675 640 c-15 -17 -16 -23 -5 -33 10 -9 11 -9 5 1 -4 8 0 21 11 33 9
10 15 19 12 19 -3 0 -13 -9 -23 -20z"/>
<path d="M5992 630 c0 -19 2 -27 5 -17 2 9 2 25 0 35 -3 9 -5 1 -5 -18z"/>
<path d="M905 640 c3 -5 8 -10 11 -10 2 0 4 5 4 10 0 6 -5 10 -11 10 -5 0 -7
-4 -4 -10z"/>
<path d="M954 620 c-1 -25 3 -30 21 -30 31 0 37 -11 18 -32 -17 -19 -16 -19
12 -12 17 4 32 8 34 10 2 2 11 -2 20 -9 14 -10 14 -10 3 4 -10 14 -9 17 9 22
12 3 18 10 14 16 -4 8 -13 6 -28 -4 -30 -21 -39 -19 -35 8 2 17 -3 23 -22 25
-13 2 -29 10 -35 18 -8 11 -10 7 -11 -16z"/>
<path d="M1030 640 c20 -13 33 -13 25 0 -3 6 -14 10 -23 10 -15 0 -15 -2 -2
-10z"/>
<path d="M775 631 c-9 -9 -5 -18 8 -18 7 0 18 6 25 13 9 10 7 12 -9 11 -11 -1
-22 -3 -24 -6z"/>
<path d="M1244 625 c-10 -8 -14 -15 -8 -15 6 0 17 7 24 15 16 19 9 19 -16 0z"/>
<path d="M633 595 c0 -8 4 -12 9 -9 4 3 8 9 8 15 0 5 -4 9 -8 9 -5 0 -9 -7 -9
-15z"/>
<path d="M1113 582 c-1 -22 0 -24 9 -8 6 10 6 22 2 26 -5 5 -10 -3 -11 -18z"/>
<path d="M735 573 l-18 -28 27 24 c28 26 31 31 17 31 -5 0 -17 -12 -26 -27z"/>
<path d="M850 589 c0 -11 21 -11 39 0 9 6 5 9 -13 9 -14 0 -26 -4 -26 -9z"/>
<path d="M1147 571 c-3 -14 0 -17 14 -14 22 6 26 33 5 33 -7 0 -16 -8 -19 -19z"/>
<path d="M889 578 c0 -2 -2 -14 -5 -27 -3 -18 -1 -21 8 -14 7 6 19 12 26 14 8
3 5 8 -8 17 -11 7 -20 11 -21 10z"/>
<path d="M6001 554 c0 -17 13 -80 29 -140 32 -113 70 -183 118 -218 20 -15 17
-8 -12 23 -58 66 -87 144 -130 346 -2 13 -4 8 -5 -11z"/>
<path d="M604 559 c-4 -7 -3 -9 4 -5 6 3 15 -2 21 -11 6 -10 11 -13 11 -7 0
20 -27 37 -36 23z"/>
<path d="M760 561 c0 -5 -3 -18 -7 -28 -6 -17 -6 -17 10 -1 19 18 22 38 7 38
-5 0 -10 -4 -10 -9z"/>
<path d="M581 544 c0 -11 3 -14 6 -6 3 7 2 16 -1 19 -3 4 -6 -2 -5 -13z"/>
<path d="M920 524 c-14 -8 -18 -13 -10 -13 24 1 55 15 44 21 -5 2 -20 -1 -34
-8z"/>
<path d="M845 521 c-6 -11 9 -23 19 -14 9 9 7 23 -3 23 -6 0 -12 -4 -16 -9z"/>
<path d="M796 495 c-3 -8 -1 -15 4 -15 6 0 10 7 10 15 0 8 -2 15 -4 15 -2 0
-6 -7 -10 -15z"/>
<path d="M872 494 c-7 -8 -8 -14 -3 -14 10 0 25 19 20 25 -2 1 -10 -3 -17 -11z"/>
<path d="M1047 483 c3 -7 6 -13 8 -13 1 0 7 6 13 13 8 10 6 13 -7 13 -11 0
-17 -6 -14 -13z"/>
<path d="M718 473 c6 -2 12 -9 12 -14 0 -6 -4 -8 -9 -4 -5 3 -12 1 -16 -5 -9
-15 31 -12 44 4 9 11 8 15 -5 20 -8 3 -21 6 -27 5 -8 0 -8 -2 1 -6z"/>
<path d="M785 460 c-3 -5 -1 -10 4 -10 6 0 11 5 11 10 0 6 -2 10 -4 10 -3 0
-8 -4 -11 -10z"/>
<path d="M540 442 c6 -13 14 -21 18 -18 3 4 -2 14 -12 24 -18 16 -18 16 -6 -6z"/>
<path d="M954 448 c-9 -14 -2 -16 26 -8 25 6 25 6 3 12 -13 3 -26 2 -29 -4z"/>
<path d="M852 427 l-23 -13 25 -12 c16 -7 26 -8 26 -2 0 6 11 8 25 4 18 -4 25
-2 25 9 0 27 -41 34 -78 14z m55 -3 c-3 -3 -12 -4 -19 -1 -8 3 -5 6 6 6 11 1
17 -2 13 -5z"/>
<path d="M500 421 c0 -6 4 -13 10 -16 6 -3 7 1 4 9 -7 18 -14 21 -14 7z"/>
<path d="M1045 420 c3 -5 8 -10 11 -10 2 0 4 5 4 10 0 6 -5 10 -11 10 -5 0 -7
-4 -4 -10z"/>
<path d="M514 375 c-9 -22 10 -40 23 -23 8 9 7 17 -3 26 -12 11 -15 10 -20 -3z"/>
<path d="M590 350 c-9 -6 -10 -10 -3 -10 6 0 15 5 18 10 8 12 4 12 -15 0z"/>
<path d="M718 343 c6 -2 18 -2 25 0 6 3 1 5 -13 5 -14 0 -19 -2 -12 -5z"/>
<path d="M436 328 c3 -4 9 -8 15 -8 5 0 9 4 9 8 0 5 -7 9 -15 9 -8 0 -12 -4
-9 -9z"/>
<path d="M430 291 c0 -15 41 -24 52 -13 8 8 4 9 -11 5 -12 -3 -21 -1 -21 6 0
6 -4 11 -10 11 -5 0 -10 -4 -10 -9z"/>
<path d="M383 234 c0 -16 2 -24 4 -17 2 7 12 9 21 6 13 -4 14 -3 3 5 -7 5 -17
15 -21 22 -4 7 -7 1 -7 -16z"/>
<path d="M6075 218 c6 -14 59 -53 89 -64 13 -5 17 -4 12 4 -4 7 -12 12 -18 12
-5 0 -28 14 -49 31 -21 17 -37 25 -34 17z"/>
<path d="M3935 19 c-38 -5 -77 -11 -85 -13 -8 -2 129 -4 305 -4 206 1 299 3
260 9 -93 12 -402 17 -480 8z"/>
</g>
</svg>
